# xmcd
#
# Track frame offsets:
#	150
#	17975
#	35515
#	62931
#	78419
#	97732
#	114438
#	128915
#	143956
#	162984
#	181835
#	199288
#	214821
#	237026
#	257506
#	274092
#	293174
#
# Disc length: 4133 seconds
#
# Revision: 0
# Processed by: cddbd v1.5.2PL0 Copyright (c) Steve Scherf et al.
# Submitted via: audiograbber 1.83.01
#
DISCID=f3102311
DTITLE=Chartbuster - ESP503-04
DYEAR=2009
DGENRE=Karaoke
TTITLE0=Underwood, Carrie - Cowboy Casanova
TTITLE1=Urban, Keith  - Only You Can Love Me This Way
TTITLE2=Paisley, Brad   - Welcome To The Future
TTITLE3=Turner, Josh   - Why Don't We Just Dance
TTITLE4=Rascal Flatts   - Summer Nights
TTITLE5=Pickler, Kellie   - Didn't You Know How Much I Loved You
TTITLE6=Lawrence, Tracy   - Up To Him
TTITLE7=Owen, Jake   - Eight Second Ride
TTITLE8=Bryan, Luke   - Do I
TTITLE9=Lady Antebellum  -  Need You Now
TTITLE10=Green, Pat   - What I'm For
TTITLE11=McGraw, Tim   - It's A Business Doing Pleasure With You
TTITLE12=Johnson, Jamey   -  High Cost Of Living
TTITLE13=Brown, Zac, Band  - Toes
TTITLE14=Newfield, Heidi   - What Am I Waiting For
TTITLE15=Bentley, Dierks  - I Wanna Make You Close Your Eyes
TTITLE16=Young, Chris - Gettin' You Home (The Black Dress Song)
EXTD=
EXTT0=
EXTT1=
EXTT2=
EXTT3=
EXTT4=
EXTT5=
EXTT6=
EXTT7=
EXTT8=
EXTT9=
EXTT10=
EXTT11=
EXTT12=
EXTT13=
EXTT14=
EXTT15=
EXTT16=
PLAYORDER=
